<svg xmlns="http://www.w3.org/2000/svg" viewBox="0 0 25 32">
    <path d="M12.364 5.931c-5.623 0-10.182 3.907-10.182 8.727 0 1.557 0.331 3.018 1.016 4.284l-1.305 4.022c-0.053 0.165 0.112 0.316 0.271 0.248l3.576-1.519c1.62 1.064 3.813 1.693 6.625 1.693 5.623 0 10.182-3.907 10.182-8.727s-4.558-8.727-10.182-8.727zM5.819 20.183c-1.115 0.556-2.111 1.182-2.898 1.898-0.055 0.164-0.070 0.064 0 0l1.248-3.707c-0.617-1.009-0.956-2.22-0.906-3.633 0.345-9.718 18.074-9.723 18.016 0-0.044 7.48-10.497 9.243-15.46 5.442z"></path>
    <path d="M17.301 14.277c0 1.741-0.832 3.152-1.859 3.152s-1.859-1.411-1.859-3.152c0-1.741 0.832-3.152 1.859-3.152s1.859 1.411 1.859 3.152z"></path>
    <path d="M11.040 14.277c0 1.741-0.832 3.152-1.859 3.152s-1.859-1.411-1.859-3.152c0-1.741 0.832-3.152 1.859-3.152s1.859 1.411 1.859 3.152z"></path>
    <path d="M21.918 17.487c-1-1-0.437-4.624 0-5.657 0.221-0.521 1.62-0.437 1.98 0 0.899 1.091 1.328 5.169 0 5.657-0.358 0.131-1.58 0.4-1.98 0z"></path>
    <path d="M2.777 11.724c0.949 1 0.415 4.624 0 5.657-0.209 0.521-1.538 0.437-1.879 0-0.853-1.091-1.26-5.169 0-5.657 0.34-0.131 1.499-0.4 1.879 0z"></path>
    <path d="M1.646 8.773h0.433v3.798h-0.433v-3.798z"></path>
    <path d="M2.569 8.652c0 0.335-0.317 0.606-0.707 0.606s-0.707-0.271-0.707-0.606c0-0.335 0.317-0.606 0.707-0.606s0.707 0.271 0.707 0.606z"></path>
    <path d="M22.349 8.773h0.433v3.798h-0.433v-3.798z"></path>
    <path d="M21.98 8.066h1.172v1.172h-1.172v-1.172z"></path>
</svg>
